<mxfile host="app.diagrams.net" modified="2023-12-18T16:20:45.935Z" agent="Mozilla/5.0 (Macintosh; Intel Mac OS X 10_15_7) AppleWebKit/537.36 (KHTML, like Gecko) Chrome/120.0.0.0 Safari/537.36" etag="CsBK8QezBa6sq_LMxSOx" version="22.1.11" type="device">
  <diagram name="Page-1" id="7_0zNEO4ABhEya6cI7uT">
    <mxGraphModel dx="1167" dy="778" grid="1" gridSize="10" guides="1" tooltips="1" connect="1" arrows="1" fold="1" page="1" pageScale="1" pageWidth="850" pageHeight="1100" math="0" shadow="0">
      <root>
        <mxCell id="0" />
        <mxCell id="1" parent="0" />
        <mxCell id="rdZS-hr1h6BNbnmUe9tR-1" value="" style="rounded=0;whiteSpace=wrap;html=1;" vertex="1" parent="1">
          <mxGeometry x="40" y="120" width="240" height="440" as="geometry" />
        </mxCell>
        <mxCell id="rdZS-hr1h6BNbnmUe9tR-2" value="HomeScreen" style="text;html=1;strokeColor=none;fillColor=none;align=center;verticalAlign=middle;whiteSpace=wrap;rounded=0;fontStyle=1" vertex="1" parent="1">
          <mxGeometry x="130" y="80" width="60" height="30" as="geometry" />
        </mxCell>
        <mxCell id="rdZS-hr1h6BNbnmUe9tR-3" value="Contains : &lt;br&gt;&lt;ul&gt;&lt;li&gt;Header (title: Welcome)&lt;/li&gt;&lt;li&gt;Dots (from 1 to exercices.length)&lt;/li&gt;&lt;li&gt;Image on the center with this text : Get Fit, and description : with high intensity interval training&lt;/li&gt;&lt;li&gt;Button (label: get Start)&lt;/li&gt;&lt;li&gt;Button on the bottom (label: History)&lt;/li&gt;&lt;/ul&gt;" style="text;html=1;strokeColor=none;fillColor=none;align=left;verticalAlign=middle;whiteSpace=wrap;rounded=0;" vertex="1" parent="1">
          <mxGeometry x="40" y="580" width="240" height="140" as="geometry" />
        </mxCell>
        <mxCell id="rdZS-hr1h6BNbnmUe9tR-6" value="IMAGE" style="ellipse;whiteSpace=wrap;html=1;aspect=fixed;" vertex="1" parent="1">
          <mxGeometry x="150" y="250" width="100" height="100" as="geometry" />
        </mxCell>
        <mxCell id="rdZS-hr1h6BNbnmUe9tR-7" value="Welcome" style="text;html=1;strokeColor=none;fillColor=none;align=center;verticalAlign=middle;whiteSpace=wrap;rounded=0;" vertex="1" parent="1">
          <mxGeometry x="130" y="140" width="60" height="30" as="geometry" />
        </mxCell>
        <mxCell id="rdZS-hr1h6BNbnmUe9tR-13" value="" style="group" vertex="1" connectable="0" parent="1">
          <mxGeometry x="105" y="170" width="110" height="20" as="geometry" />
        </mxCell>
        <mxCell id="rdZS-hr1h6BNbnmUe9tR-9" value="1" style="ellipse;whiteSpace=wrap;html=1;aspect=fixed;fillColor=#dae8fc;strokeColor=#6c8ebf;" vertex="1" parent="rdZS-hr1h6BNbnmUe9tR-13">
          <mxGeometry width="20" height="20" as="geometry" />
        </mxCell>
        <mxCell id="rdZS-hr1h6BNbnmUe9tR-10" value="2" style="ellipse;whiteSpace=wrap;html=1;aspect=fixed;fillColor=#dae8fc;strokeColor=#6c8ebf;" vertex="1" parent="rdZS-hr1h6BNbnmUe9tR-13">
          <mxGeometry x="30" width="20" height="20" as="geometry" />
        </mxCell>
        <mxCell id="rdZS-hr1h6BNbnmUe9tR-11" value="3" style="ellipse;whiteSpace=wrap;html=1;aspect=fixed;fillColor=#dae8fc;strokeColor=#6c8ebf;" vertex="1" parent="rdZS-hr1h6BNbnmUe9tR-13">
          <mxGeometry x="60" width="20" height="20" as="geometry" />
        </mxCell>
        <mxCell id="rdZS-hr1h6BNbnmUe9tR-12" value="4" style="ellipse;whiteSpace=wrap;html=1;aspect=fixed;fillColor=#dae8fc;strokeColor=#6c8ebf;" vertex="1" parent="rdZS-hr1h6BNbnmUe9tR-13">
          <mxGeometry x="90" width="20" height="20" as="geometry" />
        </mxCell>
        <mxCell id="rdZS-hr1h6BNbnmUe9tR-14" value="Get Fit" style="text;html=1;strokeColor=none;fillColor=none;align=center;verticalAlign=middle;whiteSpace=wrap;rounded=0;" vertex="1" parent="1">
          <mxGeometry x="70" y="280" width="60" height="30" as="geometry" />
        </mxCell>
        <mxCell id="rdZS-hr1h6BNbnmUe9tR-15" value="&lt;font style=&quot;font-size: 8px;&quot;&gt;&amp;nbsp;with high intensity interval training&lt;/font&gt;" style="text;html=1;strokeColor=none;fillColor=none;align=center;verticalAlign=middle;whiteSpace=wrap;rounded=0;" vertex="1" parent="1">
          <mxGeometry x="60" y="300" width="80" height="30" as="geometry" />
        </mxCell>
        <mxCell id="rdZS-hr1h6BNbnmUe9tR-16" value="Get Start" style="rounded=1;whiteSpace=wrap;html=1;fillColor=#dae8fc;strokeColor=#6c8ebf;" vertex="1" parent="1">
          <mxGeometry x="112.5" y="400" width="95" height="20" as="geometry" />
        </mxCell>
        <mxCell id="rdZS-hr1h6BNbnmUe9tR-17" value="History" style="rounded=1;whiteSpace=wrap;html=1;fillColor=#f5f5f5;strokeColor=#666666;fontColor=#333333;" vertex="1" parent="1">
          <mxGeometry x="112.5" y="530" width="95" height="20" as="geometry" />
        </mxCell>
        <mxCell id="rdZS-hr1h6BNbnmUe9tR-19" value="" style="rounded=0;whiteSpace=wrap;html=1;" vertex="1" parent="1">
          <mxGeometry x="440" y="120" width="240" height="440" as="geometry" />
        </mxCell>
        <mxCell id="rdZS-hr1h6BNbnmUe9tR-20" value="Exercise 1" style="text;html=1;strokeColor=none;fillColor=none;align=center;verticalAlign=middle;whiteSpace=wrap;rounded=0;fontStyle=1" vertex="1" parent="1">
          <mxGeometry x="530" y="80" width="90" height="30" as="geometry" />
        </mxCell>
        <mxCell id="rdZS-hr1h6BNbnmUe9tR-21" value="Contains : &lt;br&gt;&lt;ul&gt;&lt;li&gt;Header (title: Exercise name)&lt;/li&gt;&lt;li&gt;Dots (from 1 to exercices.length) with the current index selected&lt;/li&gt;&lt;li&gt;Video of the exercise&lt;/li&gt;&lt;li&gt;Button (label: Start)&lt;/li&gt;&lt;li&gt;Button (label: Done)&lt;/li&gt;&lt;li&gt;Button on the bottom (label: History)&lt;/li&gt;&lt;/ul&gt;" style="text;html=1;strokeColor=none;fillColor=none;align=left;verticalAlign=middle;whiteSpace=wrap;rounded=0;" vertex="1" parent="1">
          <mxGeometry x="440" y="580" width="240" height="140" as="geometry" />
        </mxCell>
        <mxCell id="rdZS-hr1h6BNbnmUe9tR-23" value="Exercise 1" style="text;html=1;strokeColor=none;fillColor=none;align=center;verticalAlign=middle;whiteSpace=wrap;rounded=0;" vertex="1" parent="1">
          <mxGeometry x="530" y="140" width="60" height="30" as="geometry" />
        </mxCell>
        <mxCell id="rdZS-hr1h6BNbnmUe9tR-24" value="" style="group" vertex="1" connectable="0" parent="1">
          <mxGeometry x="505" y="170" width="110" height="20" as="geometry" />
        </mxCell>
        <mxCell id="rdZS-hr1h6BNbnmUe9tR-25" value="1" style="ellipse;whiteSpace=wrap;html=1;aspect=fixed;fillColor=#dae8fc;strokeColor=#EA6B66;" vertex="1" parent="rdZS-hr1h6BNbnmUe9tR-24">
          <mxGeometry width="20" height="20" as="geometry" />
        </mxCell>
        <mxCell id="rdZS-hr1h6BNbnmUe9tR-26" value="2" style="ellipse;whiteSpace=wrap;html=1;aspect=fixed;fillColor=#dae8fc;strokeColor=#6c8ebf;" vertex="1" parent="rdZS-hr1h6BNbnmUe9tR-24">
          <mxGeometry x="30" width="20" height="20" as="geometry" />
        </mxCell>
        <mxCell id="rdZS-hr1h6BNbnmUe9tR-27" value="3" style="ellipse;whiteSpace=wrap;html=1;aspect=fixed;fillColor=#dae8fc;strokeColor=#6c8ebf;" vertex="1" parent="rdZS-hr1h6BNbnmUe9tR-24">
          <mxGeometry x="60" width="20" height="20" as="geometry" />
        </mxCell>
        <mxCell id="rdZS-hr1h6BNbnmUe9tR-28" value="4" style="ellipse;whiteSpace=wrap;html=1;aspect=fixed;fillColor=#dae8fc;strokeColor=#6c8ebf;" vertex="1" parent="rdZS-hr1h6BNbnmUe9tR-24">
          <mxGeometry x="90" width="20" height="20" as="geometry" />
        </mxCell>
        <mxCell id="rdZS-hr1h6BNbnmUe9tR-32" value="History" style="rounded=1;whiteSpace=wrap;html=1;fillColor=#f5f5f5;strokeColor=#666666;fontColor=#333333;" vertex="1" parent="1">
          <mxGeometry x="512.5" y="530" width="95" height="20" as="geometry" />
        </mxCell>
        <mxCell id="rdZS-hr1h6BNbnmUe9tR-33" value="VIDEO" style="rounded=1;whiteSpace=wrap;html=1;fillColor=#f5f5f5;fontColor=#333333;strokeColor=#666666;" vertex="1" parent="1">
          <mxGeometry x="445" y="214" width="230" height="140" as="geometry" />
        </mxCell>
        <mxCell id="rdZS-hr1h6BNbnmUe9tR-34" value="Done" style="rounded=1;whiteSpace=wrap;html=1;fillColor=#dae8fc;strokeColor=#6c8ebf;" vertex="1" parent="1">
          <mxGeometry x="580" y="370" width="95" height="20" as="geometry" />
        </mxCell>
        <mxCell id="rdZS-hr1h6BNbnmUe9tR-35" value="Start" style="rounded=1;whiteSpace=wrap;html=1;fillColor=#dae8fc;strokeColor=#6c8ebf;" vertex="1" parent="1">
          <mxGeometry x="450" y="370" width="95" height="20" as="geometry" />
        </mxCell>
        <mxCell id="rdZS-hr1h6BNbnmUe9tR-45" value="" style="group" vertex="1" connectable="0" parent="1">
          <mxGeometry x="507.5" y="430" width="100" height="22" as="geometry" />
        </mxCell>
        <mxCell id="rdZS-hr1h6BNbnmUe9tR-37" value="" style="html=1;verticalLabelPosition=bottom;labelBackgroundColor=#ffffff;verticalAlign=top;shadow=0;dashed=0;strokeWidth=2;shape=mxgraph.ios7.misc.star;fillColor=#dae8fc;strokeColor=#6c8ebf;sketch=0;" vertex="1" parent="rdZS-hr1h6BNbnmUe9tR-45">
          <mxGeometry x="40" width="20" height="22" as="geometry" />
        </mxCell>
        <mxCell id="rdZS-hr1h6BNbnmUe9tR-38" value="" style="html=1;verticalLabelPosition=bottom;labelBackgroundColor=#ffffff;verticalAlign=top;shadow=0;dashed=0;strokeWidth=2;shape=mxgraph.ios7.misc.star;fillColor=#0080f0;strokeColor=none;sketch=0;" vertex="1" parent="rdZS-hr1h6BNbnmUe9tR-45">
          <mxGeometry x="20" width="20" height="22" as="geometry" />
        </mxCell>
        <mxCell id="rdZS-hr1h6BNbnmUe9tR-39" value="" style="html=1;verticalLabelPosition=bottom;labelBackgroundColor=#ffffff;verticalAlign=top;shadow=0;dashed=0;strokeWidth=2;shape=mxgraph.ios7.misc.star;fillColor=#0080f0;strokeColor=none;sketch=0;" vertex="1" parent="rdZS-hr1h6BNbnmUe9tR-45">
          <mxGeometry width="20" height="22" as="geometry" />
        </mxCell>
        <mxCell id="rdZS-hr1h6BNbnmUe9tR-40" value="" style="html=1;verticalLabelPosition=bottom;labelBackgroundColor=#ffffff;verticalAlign=top;shadow=0;dashed=0;strokeWidth=2;shape=mxgraph.ios7.misc.star;fillColor=#dae8fc;strokeColor=#6c8ebf;sketch=0;" vertex="1" parent="rdZS-hr1h6BNbnmUe9tR-45">
          <mxGeometry x="60" width="20" height="22" as="geometry" />
        </mxCell>
        <mxCell id="rdZS-hr1h6BNbnmUe9tR-44" value="" style="html=1;verticalLabelPosition=bottom;labelBackgroundColor=#ffffff;verticalAlign=top;shadow=0;dashed=0;strokeWidth=2;shape=mxgraph.ios7.misc.star;fillColor=#dae8fc;strokeColor=#6c8ebf;sketch=0;" vertex="1" parent="rdZS-hr1h6BNbnmUe9tR-45">
          <mxGeometry x="80" width="20" height="22" as="geometry" />
        </mxCell>
      </root>
    </mxGraphModel>
  </diagram>
</mxfile>
